<?xml version="1.0" standalone="no"?>
<!DOCTYPE svg PUBLIC "-//W3C//DTD SVG 20010904//EN"
 "http://www.w3.org/TR/2001/REC-SVG-20010904/DTD/svg10.dtd">
<svg version="1.0" xmlns="http://www.w3.org/2000/svg"
 width="512.000000pt" height="512.000000pt" viewBox="0 0 512.000000 512.000000"
 preserveAspectRatio="xMidYMid meet">

<g transform="translate(0.000000,512.000000) scale(0.100000,-0.100000)"
fill="#000000" stroke="none">
<path d="M450 4428 c-75 -51 -75 -51 -78 -329 l-3 -249 2191 0 2191 0 -3 249
c-3 278 -3 278 -78 329 l-33 22 -2077 0 -2077 0 -33 -22z m2678 -93 c74 -31
121 -102 122 -182 0 -55 -14 -91 -53 -132 -42 -44 -84 -61 -150 -61 -105 0
-187 83 -187 189 0 61 13 97 48 135 57 60 146 81 220 51z m640 -6 c83 -41 129
-143 103 -230 -15 -49 -65 -108 -108 -125 -79 -34 -187 -7 -236 58 -125 165
55 386 241 297z m651 -12 c54 -36 85 -96 85 -167 1 -65 -21 -108 -77 -154 -36
-29 -45 -31 -116 -31 -70 0 -81 3 -115 29 -92 70 -109 179 -44 276 56 82 181
104 267 47z"/>
<path d="M3033 4242 c-12 -2 -34 -17 -49 -35 -64 -76 24 -180 114 -133 92 48
39 184 -65 168z"/>
<path d="M3653 4238 c-36 -9 -63 -50 -63 -93 0 -37 50 -85 88 -85 47 0 92 43
92 89 0 67 -52 107 -117 89z"/>
<path d="M4245 4215 c-54 -53 -11 -155 65 -155 45 0 90 47 90 95 0 78 -99 116
-155 60z"/>
<path d="M372 2261 l3 -1490 21 -28 c11 -15 36 -38 54 -50 l33 -23 2077 0
2077 0 33 23 c18 12 43 35 54 50 l21 28 3 1490 2 1489 -2190 0 -2190 0 2
-1489z m1168 1144 c99 -26 180 -74 258 -151 189 -188 224 -465 87 -700 -68
-118 -209 -222 -350 -259 -307 -80 -634 126 -700 440 -18 88 -18 142 0 230 43
207 209 384 411 440 66 18 226 18 294 0z m2752 -10 c9 -19 8 -29 -6 -50 l-16
-25 -707 0 c-643 0 -708 1 -725 17 -20 18 -23 36 -8 64 10 19 29 19 731 19
l719 0 12 -25z m-618 -267 c14 -19 16 -72 16 -375 0 -340 -1 -354 -20 -373
-19 -19 -33 -20 -380 -20 -347 0 -361 1 -380 20 -19 19 -20 33 -20 377 0 318
2 358 17 375 15 17 40 18 384 18 l368 0 15 -22z m612 -203 c14 -21 15 -31 6
-50 l-12 -25 -233 0 c-249 0 -257 2 -257 50 0 48 8 50 252 50 l228 0 16 -25z
m6 -400 c9 -19 8 -29 -6 -50 l-16 -25 -221 0 c-133 0 -228 4 -240 10 -22 12
-26 59 -7 78 9 9 77 12 245 12 l233 0 12 -25z m-2358 -407 c14 -20 16 -89 16
-553 0 -464 -2 -533 -16 -553 -15 -21 -20 -22 -201 -22 -159 0 -189 2 -205 17
-17 15 -18 46 -18 556 0 489 2 542 17 559 14 16 35 18 204 18 183 0 188 -1
203 -22z m2346 -118 c11 -11 20 -27 20 -35 0 -8 -9 -24 -20 -35 -20 -20 -33
-20 -694 -20 -735 0 -706 -2 -706 55 0 57 -29 55 706 55 661 0 674 0 694 -20z
m-3036 -142 c14 -19 16 -77 16 -423 0 -346 -2 -404 -16 -423 -15 -21 -20 -22
-201 -22 -159 0 -189 2 -205 17 -17 15 -18 42 -18 425 0 263 4 416 10 429 10
18 23 19 205 19 189 0 194 -1 209 -22z m1380 6 c14 -13 16 -66 16 -422 0 -353
-2 -411 -16 -430 -15 -21 -20 -22 -204 -22 -184 0 -189 1 -204 22 -14 19 -16
77 -16 430 0 356 2 409 16 422 13 13 46 16 204 16 158 0 191 -3 204 -16z
m1656 -264 c11 -11 20 -27 20 -35 0 -8 -9 -24 -20 -35 -20 -20 -33 -20 -694
-20 -735 0 -706 -2 -706 55 0 57 -29 55 706 55 661 0 674 0 694 -20z m0 -400
c11 -11 20 -27 20 -35 0 -8 -9 -24 -20 -35 -20 -20 -33 -20 -692 -20 -611 0
-673 1 -690 17 -22 20 -23 56 -2 77 14 14 90 16 690 16 661 0 674 0 694 -20z"/>
<path d="M1283 3304 c-158 -41 -280 -155 -333 -314 -19 -54 -21 -81 -18 -162
4 -85 9 -105 41 -173 91 -190 293 -299 494 -265 230 38 393 228 393 457 0 66
-2 74 -17 69 -114 -33 -436 -116 -451 -116 -43 0 -47 20 -52 275 l-5 242 -52
-13z"/>
<path d="M1450 3118 c0 -185 1 -199 18 -194 9 3 93 25 186 50 93 25 171 48
173 50 3 3 -7 27 -23 55 -56 104 -191 203 -311 230 l-43 9 0 -200z"/>
<path d="M3000 2760 l0 -290 290 0 290 0 0 290 0 290 -290 0 -290 0 0 -290z"/>
<path d="M1620 1565 l0 -475 110 0 110 0 0 475 0 475 -110 0 -110 0 0 -475z"/>
<path d="M930 1435 l0 -345 110 0 110 0 0 345 0 345 -110 0 -110 0 0 -345z"/>
<path d="M2310 1435 l0 -345 110 0 110 0 0 345 0 345 -110 0 -110 0 0 -345z"/>
</g>
</svg>
