<?xml version="1.0" standalone="no"?>
<!DOCTYPE svg PUBLIC "-//W3C//DTD SVG 20010904//EN"
 "http://www.w3.org/TR/2001/REC-SVG-20010904/DTD/svg10.dtd">
<svg version="1.0" xmlns="http://www.w3.org/2000/svg"
 width="512.000000pt" height="512.000000pt" viewBox="0 0 512.000000 512.000000"
 preserveAspectRatio="xMidYMid meet">

<g transform="translate(0.000000,512.000000) scale(0.100000,-0.100000)"
fill="rgb(113, 89, 78)" stroke="none">
<path d="M420 5070 c0 -124 45 -237 127 -318 65 -65 107 -82 199 -82 87 0 163
40 266 138 107 102 152 126 240 127 91 0 110 -16 175 -145 52 -104 52 -104 63
-75 7 17 10 60 7 100 -8 131 -70 213 -166 223 -68 6 -107 -9 -216 -89 -52 -38
-121 -83 -153 -99 -60 -31 -158 -60 -202 -60 -75 1 -177 92 -270 242 -30 48
-58 88 -62 88 -5 0 -8 -22 -8 -50z"/>
<path d="M2472 4909 c7 -132 66 -218 166 -244 89 -23 165 6 245 95 56 62 102
90 150 90 59 0 93 -24 134 -95 20 -35 40 -62 45 -59 14 9 28 81 22 115 -10 50
-29 83 -66 114 -28 23 -39 27 -81 22 -34 -3 -60 -14 -90 -36 -99 -75 -148
-103 -203 -117 -101 -27 -149 -4 -250 121 -31 39 -61 72 -66 74 -7 2 -9 -26
-6 -80z"/>
<path d="M1080 3749 c0 -653 3 -820 13 -817 6 3 146 52 309 109 l298 104 0
713 0 712 -310 0 -310 0 0 -821z"/>
<path d="M2797 4563 c-4 -3 -7 -373 -7 -821 l0 -814 23 6 c12 3 153 52 312
109 l290 102 3 713 2 712 -308 0 c-170 0 -312 -3 -315 -7z"/>
<path d="M1088 2747 l-778 -311 0 -333 0 -333 2250 0 2250 0 0 335 0 335 -532
2 -533 3 -59 305 c-33 168 -60 306 -62 308 -1 2 -352 -137 -779 -308 -428
-171 -781 -307 -785 -303 -4 4 -46 141 -94 303 -49 162 -91 298 -94 302 -4 3
-357 -134 -784 -305z"/>
<path d="M310 765 l0 -765 2250 0 2250 0 0 765 0 765 -2250 0 -2250 0 0 -765z
m900 140 l0 -385 -240 0 -240 0 0 385 0 385 240 0 240 0 0 -385z m888 3 l-3
-383 -242 -3 -243 -2 0 385 0 385 245 0 245 0 -2 -382z m852 -3 l0 -385 -240
0 -240 0 0 385 0 385 240 0 240 0 0 -385z"/>
</g>
</svg>
