<?xml version="1.0" standalone="no"?>
<!DOCTYPE svg PUBLIC "-//W3C//DTD SVG 20010904//EN"
 "http://www.w3.org/TR/2001/REC-SVG-20010904/DTD/svg10.dtd">
<svg version="1.0" xmlns="http://www.w3.org/2000/svg"
 width="512.000000pt" height="512.000000pt" viewBox="0 0 512.000000 512.000000"
 preserveAspectRatio="xMidYMid meet">

<g transform="translate(0.000000,512.000000) scale(0.100000,-0.100000)"
fill="#000000" stroke="none">
<path d="M3816 4788 c-30 -31 -35 -47 -85 -286 -58 -279 -58 -301 -1 -342 34
-24 106 -27 138 -4 37 26 48 59 101 312 47 223 50 245 37 275 -20 50 -60 77
-113 77 -37 0 -50 -5 -77 -32z"/>
<path d="M2589 4571 c-13 -10 -61 -79 -107 -153 -201 -323 -381 -548 -677
-844 -216 -216 -417 -389 -626 -536 -49 -34 -89 -66 -89 -70 0 -5 505 -884
822 -1430 l38 -67 78 35 c597 276 1222 427 1869 452 212 8 221 11 243 78 10
29 9 40 -8 72 -81 155 -1409 2442 -1428 2460 -31 27 -82 29 -115 3z"/>
<path d="M4516 4042 c-179 -105 -223 -134 -238 -163 -30 -55 -12 -121 43 -153
59 -35 89 -24 324 112 196 113 222 131 239 165 16 33 17 45 7 77 -16 54 -62
90 -114 90 -35 -1 -78 -22 -261 -128z"/>
<path d="M3462 3819 c-18 -5 -31 -13 -29 -17 3 -4 96 -164 207 -357 111 -192
203 -352 206 -354 11 -11 69 62 102 128 36 73 37 78 37 185 0 104 -2 115 -31
177 -55 116 -142 192 -262 229 -68 21 -173 25 -230 9z"/>
<path d="M4415 3216 c-77 -34 -93 -141 -29 -198 25 -22 471 -168 513 -168 98
0 152 100 99 181 -22 32 -38 39 -268 116 -135 45 -254 82 -265 82 -11 0 -34
-6 -50 -13z"/>
<path d="M625 2697 c-222 -128 -259 -152 -331 -223 -66 -65 -90 -97 -122 -165
-78 -161 -91 -334 -38 -491 26 -79 233 -449 310 -555 54 -75 137 -142 233
-189 101 -49 195 -67 318 -61 157 8 179 18 659 296 44 25 78 51 77 56 -3 16
-845 1475 -851 1475 -3 0 -118 -64 -255 -143z"/>
<path d="M1760 1093 c-140 -80 -257 -148 -260 -150 -7 -6 603 -613 632 -629
35 -18 101 -18 136 0 40 22 259 247 271 279 15 40 13 83 -5 120 -14 29 -500
527 -514 527 -3 0 -120 -66 -260 -147z"/>
</g>
</svg>
