<!DOCTYPE svg PUBLIC "-//W3C//DTD SVG 1.1//EN" "http://www.w3.org/Graphics/SVG/1.1/DTD/svg11.dtd">
<!-- Uploaded to: SVG Repo, www.svgrepo.com, Transformed by: SVG Repo Mixer Tools -->
<svg height="256px" width="256px" version="1.1" id="_x32_" xmlns="http://www.w3.org/2000/svg" xmlns:xlink="http://www.w3.org/1999/xlink" viewBox="0 0 512 512" xml:space="preserve" fill="rgb(113, 89, 78)">
<g id="SVGRepo_bgCarrier" stroke-width="0"/>
<g id="SVGRepo_tracerCarrier" stroke-linecap="round" stroke-linejoin="round"/>
<g id="SVGRepo_iconCarrier"> <style type="text/css"> .st0{fill:#rgb(113, 89, 78);} </style> <g> <path class="st0" d="M123.671,288.694c1.743,0.582,3.542,0.877,5.347,0.877h0.002c3.898,0,7.694-1.405,10.685-3.944 c6.502-5.52,9.577-14.868,4.827-44.394c-4.204-26.18-10.716-39.891-21.77-45.838c-2.42-1.304-4.983-2.174-7.638-2.593 c0.084-48.796,16.805-93.889,45.986-123.881c24.926-25.629,57.736-39.169,94.888-39.169c37.152,0,69.965,13.54,94.891,39.169 c29.181,29.992,45.902,75.077,45.986,123.881c-2.655,0.419-5.218,1.289-7.638,2.593c-11.054,5.947-17.564,19.658-21.77,45.838 c-1.797,11.18-2.535,19.829-2.25,26.39c-8.6,4.604-23.986,10.31-49.569,12.523c-4.031-6.716-11.219-10.846-18.998-10.846h-14.759 c-12.273,0-22.257,9.984-22.257,22.259c0,12.275,9.984,22.259,22.257,22.259h14.759c8.682,0,16.485-4.992,20.144-12.803 c23.268-1.933,42.473-6.716,57.11-14.239c2.735,1.832,5.854,2.795,9.076,2.795c1.819,0,3.62-0.295,5.351-0.877 c11.772-3.921,36.599-30.753,38.2-88.688c1.642-59.324-18.154-114.658-54.314-151.831C341.563,16.661,301.375,0,255.999,0 c-45.374,0-85.562,16.661-116.218,48.175c-36.158,37.174-55.955,92.507-54.313,151.831 C87.07,257.941,111.897,284.773,123.671,288.694z"/> <path class="st0" d="M452.727,457.031c-3.758-20.644-17.384-38.198-36.512-46.995l-80.048-32.71 c-12.762-5.862-21.009-18.726-21.009-32.772v-6.452l-2.11,0.73c-5.375,1.864-10.891,2.803-16.398,2.803h-14.759 c-27.612,0-50.077-22.461-50.077-50.077c0-27.608,22.465-50.07,50.077-50.07h14.759c10.305,0,20.204,3.129,28.628,9.053 l0.532,0.373l0.64-0.109c17.624-2.904,25.745-7.516,28.82-9.759l5.264-7.694c5.153-16.561,7.766-32.112,7.766-46.219 c0-74.697-47.23-128.912-112.302-128.912c-65.071,0-112.299,54.216-112.299,128.912c0,61.808,50.2,129.51,50.475,129.751 c1.768,5.132,2.665,10.481,2.665,15.885v11.786c0,14.045-8.248,26.902-20.947,32.741l-80.17,32.771 c-19.076,8.766-32.704,26.328-36.471,47.127L55.003,512h401.995L452.727,457.031z"/> </g> </g>
</svg>